<?xml version="1.0" encoding="iso-8859-1"?>
<!-- Generator: Adobe Illustrator 19.0.0, SVG Export Plug-In . SVG Version: 6.00 Build 0)  -->
<svg version="1.1" id="Layer_1" xmlns="http://www.w3.org/2000/svg" xmlns:xlink="http://www.w3.org/1999/xlink" x="0px" y="0px"
	 viewBox="0 0 502 502" style="enable-background:new 0 0 502 502;" xml:space="preserve">
<g>
	<g>
		<g>
			<path d="M497,0H5C2.238,0,0,2.239,0,5v492c0,2.761,2.238,5,5,5h492c2.762,0,5-2.239,5-5V5C502,2.239,499.762,0,497,0z M492,492
				H10V10h482V492z"/>
			<path d="M310.15,167H395c2.762,0,5-2.239,5-5v-26.11c0-2.761-2.238-5-5-5c-2.762,0-5,2.239-5,5V157h-74.85v-16.11H325
				c2.762,0,5-2.239,5-5c0-2.761-2.238-5-5-5h-14.85c-2.762,0-5,2.239-5,5V162C305.15,164.761,307.388,167,310.15,167z"/>
			<path d="M359,141h18c2.762,0,5-2.239,5-5s-2.238-5-5-5h-18c-2.762,0-5,2.239-5,5S356.238,141,359,141z"/>
			<path d="M399,454c0,2.761,2.238,5,5,5h43c2.762,0,5-2.239,5-5s-2.238-5-5-5h-43C401.238,449,399,451.239,399,454z"/>
			<path d="M54,459h300c2.762,0,5-2.239,5-5s-2.238-5-5-5H54c-2.762,0-5,2.239-5,5S51.238,459,54,459z"/>
			<path d="M215.212,289.356c0-9.403-2.999-17.102-8.914-22.882c-10.861-10.614-27.704-10.578-29.109-10.56h-49.671
				c-2.762,0-5,2.239-5,5V317.8c0,2.761,2.238,5,5,5h49.671c0.065,0.001,0.164,0.002,0.295,0.002
				c2.668,0,18.457-0.442,28.813-10.563C212.213,306.458,215.212,298.76,215.212,289.356z M199.345,305.052
				c-8.053,7.911-21.848,7.749-21.995,7.75c-0.038-0.001-0.077-0.001-0.115-0.001h-44.716v-46.887h44.716
				c0.038,0,0.077,0,0.115-0.001c0.136-0.009,13.962-0.102,21.96,7.714c3.973,3.882,5.903,9.027,5.903,15.73
				C205.213,296.04,203.294,301.174,199.345,305.052z"/>
			<path d="M127.519,233.626h46.82c0.056,0.001,0.135,0.001,0.236,0.001c2.274,0,15.824-0.378,24.737-9.089
				c5.121-5.005,7.718-11.655,7.718-19.766c0-8.108-2.596-14.757-7.716-19.762c-9.31-9.099-23.67-9.108-24.976-9.09h-46.82
				c-2.762,0-5,2.239-5,5v47.705C122.519,231.388,124.757,233.626,127.519,233.626z M132.519,185.921h41.862
				c0.038,0,0.076,0,0.114-0.001c0.11-0.001,11.361-0.078,17.829,6.243c3.167,3.096,4.706,7.221,4.706,12.611
				c0,5.373-1.528,9.488-4.673,12.58c-6.496,6.389-17.761,6.271-17.862,6.274c-0.038-0.001-0.076-0.001-0.114-0.001h-41.862V185.921
				z"/>
			<path d="M72.196,369.54h109.847c18.994,0,34.711-3,46.714-8.917c17.96-8.859,29.179-19.061,35.307-32.104
				c1.645-3.502,2.928-7.186,3.873-11.172c4.265,10.029,10.156,19.209,17.55,27.127c16.891,18.089,40.228,28.051,65.712,28.051
				c42.648,0,72.876-19.494,85.116-54.89c0.528-1.528,0.285-3.218-0.653-4.535c-0.938-1.317-2.455-2.099-4.072-2.099h-42.613
				c-1.509,0-2.937,0.681-3.886,1.854C376.293,323.719,363.729,326,354.739,326c-11.301,0-21.149-3.781-27.733-10.647
				c-5.12-5.339-8.043-12.446-8.578-20.75h118.544c2.595,0,4.758-1.985,4.981-4.57c0.355-4.118,0.536-8.445,0.536-12.861
				c0-52.575-40.952-95.347-91.29-95.347c-44.945,0-82.404,34.1-89.915,78.83c-7.57-11.556-18.856-18.754-26.994-22.752
				c16.737-11.197,25.441-28.596,25.31-50.896c-0.123-20.781-9.72-37.272-27.752-47.688c-13.649-7.885-29.431-10.682-38.797-10.682
				H72.196c-2.762,0-5,2.239-5,5V364.54C67.196,367.301,69.434,369.54,72.196,369.54z M351.199,191.825
				c44.823,0,81.29,38.286,81.29,85.346c0,2.52-0.062,5.005-0.186,7.431H313.385c-2.68,0-4.883,2.113-4.995,4.79
				c-0.554,13.157,3.388,24.527,11.398,32.881c8.487,8.852,20.899,13.727,34.951,13.727c15.09,0,27.667-5.176,36.538-15h32.953
				c-12.124,26.847-37.78,41.524-73.031,41.524c-46.343,0-81.289-36.694-81.289-85.353
				C269.91,230.111,306.376,191.825,351.199,191.825z M77.196,138.636h115.855c6.546,0,21.029,1.967,33.795,9.341
				c14.996,8.662,22.651,21.813,22.754,39.088c0.132,22.253-9.588,38.065-28.888,46.998c-1.888,0.874-3.037,2.823-2.888,4.897
				c0.149,2.074,1.567,3.839,3.56,4.433c0.352,0.104,35.177,10.82,37.886,41.051c2.846,31.743-1.777,50.853-34.936,67.209
				c-10.614,5.233-24.844,7.887-42.291,7.887H77.196V138.636z"/>
			<path d="M317.876,260.999H385c1.442,0,2.814-0.623,3.764-1.709c0.95-1.085,1.384-2.529,1.191-3.958
				c-2.846-21.138-17.965-34.797-38.517-34.797c-20.551,0-35.67,13.659-38.517,34.797c-0.192,1.43,0.241,2.873,1.191,3.958
				C315.061,260.376,316.433,260.999,317.876,260.999z M351.438,230.535c13.569,0,23.669,7.701,27.413,20.465h-54.826
				C327.77,238.235,337.869,230.535,351.438,230.535z"/>
		</g>
	</g>
</g>
<g>
</g>
<g>
</g>
<g>
</g>
<g>
</g>
<g>
</g>
<g>
</g>
<g>
</g>
<g>
</g>
<g>
</g>
<g>
</g>
<g>
</g>
<g>
</g>
<g>
</g>
<g>
</g>
<g>
</g>
</svg>
