<svg id="Capa_1" data-name="Capa 1" xmlns="http://www.w3.org/2000/svg" viewBox="0 0 53 53.96"><defs><style>.cls-1,.cls-2,.cls-3{fill:#4e2b83;}.cls-1{stroke:#4e2b83;stroke-miterlimit:10;}.cls-3{font-size:9px;font-family:MyriadPro-Regular, Myriad Pro;}.cls-4{letter-spacing:-0.02em;}.cls-5{letter-spacing:0em;}</style></defs><title>viewresume</title><path class="cls-1" d="M51.91,16.24C51.15,7.89,45.24,1.83,37.84,1.83a14,14,0,0,0-12,6.9,13.47,13.47,0,0,0-11.69-6.9C6.76,1.83.85,7.89.09,16.24a14.8,14.8,0,0,0,.44,5.48,23.5,23.5,0,0,0,7.2,12L25.84,50.17,44.27,33.73a23.5,23.5,0,0,0,7.2-12A14.8,14.8,0,0,0,51.91,16.24Zm-2.39,5a21.48,21.48,0,0,1-6.59,11L25.85,47.48,9.07,32.25a21.48,21.48,0,0,1-6.59-11,13,13,0,0,1-.42-4.7v-.1C2.72,9.14,7.81,3.83,14.16,3.83a11.73,11.73,0,0,1,10.77,7.51l.92,2.18.92-2.18A12.09,12.09,0,0,1,37.84,3.83c6.35,0,11.43,5.31,12.1,12.72A13.08,13.08,0,0,1,49.52,21.26Z" transform="translate(0.5 3.12)"/><path class="cls-2" d="M16,7.9a10,10,0,0,0-10,10,1,1,0,0,0,2,0,8,8,0,0,1,8-8,1,1,0,0,0,0-2Z" transform="translate(0.5 3.12)"/><text class="cls-3" transform="translate(16.07 23.94) scale(1.05 1)"><tspan class="cls-4">V</tspan><tspan x="4.88" y="0">iew</tspan><tspan class="cls-5" x="-5.9" y="10.8">R</tspan><tspan x="-1.03" y="10.8">esume</tspan></text><text x="0.5" y="3.12"/></svg>